# xmcd
#
# Track frame offsets:
#	150
#	28774
#	47899
#	65164
#	82150
#	99386
#	119163
#	135280
#	154039
#
# Disc length: 2373 seconds
#
# Revision: 1
# Processed by: cddbd v1.5.2PL0 Copyright (c) Steve Scherf et al.
# Submitted via: audiograbber 1.83.01
#
DISCID=7d094309
DTITLE=Clint Bradley - Cross a soul with silver
DYEAR=2011
DGENRE=Country
TTITLE0=Cross a soul with silver
TTITLE1=Above
TTITLE2=All in black
TTITLE3=Is it a memory
TTITLE4=Just insane
TTITLE5=Where do i go from here
TTITLE6=Idaho dream
TTITLE7=This hour in the desert (version 2)
TTITLE8=Centeration scar
EXTD=
EXTT0=
EXTT1=
EXTT2=
EXTT3=
EXTT4=
EXTT5=
EXTT6=
EXTT7=
EXTT8=
PLAYORDER=
